# This file uses centimeters as units for non-parametric coordinates.

mtllib healthpickup.mtl
g default
v 0.886980 21.344143 -2.138268
v -0.886980 21.344143 -2.138268
v -0.886980 -0.038534 -2.138268
v 0.886980 -0.038534 -2.138268
v 0.886980 21.344143 2.138268
v -0.886980 21.344143 2.138268
v -0.886980 -0.038534 2.138268
v 0.886980 -0.038534 2.138268
v 0.886980 12.791072 10.691339
v -0.886980 12.791072 10.691339
v -0.886980 12.791072 2.138268
v -0.886980 12.791072 -2.138268
v -0.886980 12.791072 -10.691339
v 0.886980 12.791072 -10.691339
v 0.886980 12.791072 -2.138268
v 0.886980 12.791072 2.138268
v 0.886980 8.514550 10.691339
v -0.886980 8.514550 10.691339
v -0.886980 8.514550 2.138268
v -0.886980 8.514550 -2.138268
v -0.886980 8.514550 -10.691339
v 0.886980 8.514550 -10.691339
v 0.886980 8.514550 -2.138268
v 0.886980 8.514550 2.138268
vt 0.700000 0.325000
vt 0.300000 0.325000
vt 0.300000 0.425000
vt 0.700000 0.425000
vt 0.675000 0.300000
vt 0.325000 0.300000
vt 0.325000 0.450000
vt 0.675000 0.450000
vt 0.625000 0.150000
vt 0.375000 0.150000
vt 0.275000 0.150000
vt 0.225000 0.150000
vt 0.250000 0.375000
vt 0.750000 0.375000
vt 0.775000 0.150000
vt 0.725000 0.150000
vt 0.625000 0.100000
vt 0.375000 0.100000
vt 0.275000 0.100000
vt 0.225000 0.100000
vt 0.250000 0.375000
vt 0.750000 0.375000
vt 0.775000 0.100000
vt 0.725000 0.100000
vn 0.000000 1.000000 0.000000
vn 0.000000 1.000000 0.000000
vn 0.000000 1.000000 0.000000
vn 0.000000 1.000000 0.000000
vn -1.000000 0.000000 0.000000
vn -1.000000 0.000000 0.000000
vn -1.000000 0.000000 0.000000
vn -1.000000 0.000000 0.000000
vn 0.000000 -1.000000 0.000000
vn 0.000000 -1.000000 0.000000
vn 0.000000 -1.000000 0.000000
vn 0.000000 -1.000000 0.000000
vn 1.000000 0.000000 0.000000
vn 1.000000 0.000000 0.000000
vn 1.000000 0.000000 0.000000
vn 1.000000 0.000000 0.000000
vn -1.000000 0.000000 0.000000
vn -1.000000 0.000000 0.000000
vn -1.000000 0.000000 0.000000
vn -1.000000 0.000000 0.000000
vn 1.000000 0.000000 0.000000
vn 1.000000 0.000000 0.000000
vn 1.000000 0.000000 0.000000
vn 1.000000 0.000000 0.000000
vn 0.000000 0.000000 1.000000
vn 0.000000 0.000000 1.000000
vn 0.000000 0.000000 1.000000
vn 0.000000 0.000000 1.000000
vn -1.000000 0.000000 0.000000
vn -1.000000 0.000000 0.000000
vn -1.000000 0.000000 0.000000
vn -1.000000 0.000000 0.000000
vn 0.000000 0.000000 -1.000000
vn 0.000000 0.000000 -1.000000
vn 0.000000 0.000000 -1.000000
vn 0.000000 0.000000 -1.000000
vn 1.000000 0.000000 0.000000
vn 1.000000 0.000000 0.000000
vn 1.000000 0.000000 0.000000
vn 1.000000 0.000000 0.000000
vn 0.000000 0.000000 1.000000
vn 0.000000 0.000000 1.000000
vn 0.000000 0.000000 1.000000
vn 0.000000 0.000000 1.000000
vn 0.000000 1.000000 0.000000
vn 0.000000 1.000000 0.000000
vn 0.000000 1.000000 0.000000
vn 0.000000 1.000000 0.000000
vn 0.000000 -1.000000 0.000000
vn 0.000000 -1.000000 0.000000
vn 0.000000 -1.000000 0.000000
vn 0.000000 -1.000000 0.000000
vn 0.000000 0.000000 1.000000
vn 0.000000 0.000000 1.000000
vn 0.000000 0.000000 1.000000
vn 0.000000 0.000000 1.000000
vn 0.000000 0.000000 -1.000000
vn 0.000000 0.000000 -1.000000
vn 0.000000 0.000000 -1.000000
vn 0.000000 0.000000 -1.000000
vn 0.000000 -1.000000 0.000000
vn 0.000000 -1.000000 0.000000
vn 0.000000 -1.000000 0.000000
vn 0.000000 -1.000000 0.000000
vn 0.000000 1.000000 0.000000
vn 0.000000 1.000000 0.000000
vn 0.000000 1.000000 0.000000
vn 0.000000 1.000000 0.000000
vn 0.000000 0.000000 -1.000000
vn 0.000000 0.000000 -1.000000
vn 0.000000 0.000000 -1.000000
vn 0.000000 0.000000 -1.000000
s off
g pCube1
usemtl lambert3SG
f 6/6/1 5/5/2 1/1/3 2/2/4
s 1
f 3/3/5 7/7/6 19/19/7 20/20/8
s off
f 3/3/9 4/4/10 8/8/11 7/7/12
s 2
f 8/8/13 4/4/14 23/23/15 24/24/16
s 1
f 12/12/17 11/11/18 6/6/19 2/2/20
s 2
f 16/16/21 15/15/22 1/1/23 5/5/24
s off
f 18/18/25 17/17/26 9/9/27 10/10/28
s 1
f 18/18/29 10/10/30 11/11/18 19/19/7
f 20/20/8 19/19/7 11/11/18 12/12/17
f 20/20/8 12/12/17 13/13/31 21/21/32
s off
f 13/13/33 14/14/34 22/22/35 21/21/36
s 2
f 15/15/22 23/23/15 22/22/37 14/14/38
f 16/16/21 24/24/16 23/23/15 15/15/22
f 9/9/39 17/17/40 24/24/16 16/16/21
s off
f 16/16/41 5/5/42 6/6/43 11/11/44
f 9/9/45 16/16/46 11/11/47 10/10/48
f 24/24/49 17/17/50 18/18/51 19/19/52
f 8/8/53 24/24/54 19/19/55 7/7/56
f 3/3/57 20/20/58 23/23/59 4/4/60
f 22/22/61 23/23/62 20/20/63 21/21/64
f 15/15/65 14/14/66 13/13/67 12/12/68
f 1/1/69 15/15/70 12/12/71 2/2/72
